<svg version="1.0" xmlns="http://www.w3.org/2000/svg"
 width="80.000000pt" height="48.000000pt" viewBox="0 0 80.000000 48.000000"
 preserveAspectRatio="xMidYMid meet">
<g transform="translate(0.000000,48.000000) scale(0.100000,-0.100000)"
fill="#000000" stroke="none">
<path d="M375 431 c-65 -39 -130 -148 -144 -240 -6 -41 -9 -44 -56 -63 -78
-30 -83 -40 -35 -71 22 -15 40 -34 40 -42 0 -12 18 -15 95 -15 93 0 96 1 105
26 15 38 13 44 -15 44 -30 0 -30 -3 -4 123 23 110 30 130 62 165 26 28 29 28
68 -5 l32 -27 -8 25 c-29 93 -75 120 -140 80z"/>
</g>
</svg>
